<?xml version="1.0" encoding="iso-8859-1"?>
<!-- Generator: Adobe Illustrator 19.0.0, SVG Export Plug-In . SVG Version: 6.00 Build 0)  -->
<svg version="1.1" id="Capa_1" xmlns="http://www.w3.org/2000/svg" xmlns:xlink="http://www.w3.org/1999/xlink" x="0px" y="0px"
	 viewBox="0 0 511.999 511.999" style="enable-background:new 0 0 511.999 511.999;" xml:space="preserve">
<g>
	<path style="fill:#CE3043;" d="M226.44,8.057L226.44,8.057c-8.341,0-15.103,6.761-15.103,15.103v187.441
		c16.132,11.35,27.415,30.021,29.744,51.599h0.462V23.159C241.542,14.819,234.78,8.057,226.44,8.057z"/>
	<path style="fill:#CE3043;" d="M285.56,8.057L285.56,8.057c8.341,0,15.103,6.761,15.103,15.103v187.441
		c-16.132,11.35-27.415,30.021-29.744,51.599h-0.462V23.159C270.458,14.819,277.22,8.057,285.56,8.057z"/>
</g>
<g>
	<path style="fill:#EF3A47;" d="M175.046,198.962h-11.273c-1.202,4.887-1.913,9.917-1.913,15.13c0,5.056,0.666,9.941,1.802,14.69
		h11.384c20.224,0,36.677,18.713,36.677,41.714v218.535c0,8.221,6.688,14.91,14.91,14.91c8.221,0,14.91-6.688,14.91-14.91V270.496
		C241.542,231.053,211.712,198.962,175.046,198.962z"/>
	<path style="fill:#EF3A47;" d="M336.954,198.962h11.273c1.202,4.887,1.913,9.917,1.913,15.13c0,5.056-0.666,9.941-1.802,14.69
		h-11.384c-20.224,0-36.677,18.713-36.677,41.714v218.535c0,8.221-6.688,14.91-14.91,14.91c-8.221,0-14.91-6.688-14.91-14.91
		V270.496C270.458,231.053,300.288,198.962,336.954,198.962z"/>
</g>
<path style="fill:#F77474;" d="M161.86,214.092c0,40.361,42.377,69.801,28.455,106.216C159.979,399.65,7.511,355.483,7.511,214.092
	S159.979,28.534,190.314,107.877C204.238,144.292,161.86,173.731,161.86,214.092z"/>
<path style="fill:#E55555;" d="M190.314,107.877c-11.986-31.348-43.037-43.399-76.217-37.808
	c20.722,3.87,37.946,16.286,46.175,37.808c13.923,36.415-28.455,65.855-28.455,106.216s42.377,69.801,28.455,106.216
	c-8.23,21.523-25.454,33.937-46.175,37.808c33.179,5.591,64.231-6.461,76.217-37.808c13.923-36.415-28.455-65.854-28.455-106.216
	S204.238,144.292,190.314,107.877z"/>
<path style="fill:#F77474;" d="M350.14,214.092c0,40.361-42.377,69.801-28.455,106.216
	c30.336,79.343,182.804,35.175,182.804-106.216S352.021,28.534,321.686,107.877C307.762,144.292,350.14,173.731,350.14,214.092z"/>
<path style="fill:#E55555;" d="M367.86,70.069c50.799,8.56,106.587,58.496,106.587,144.023S418.659,349.557,367.86,358.116
	c55.668,10.399,136.629-40.987,136.629-144.023S423.528,59.669,367.86,70.069z"/>
<path style="fill:#FFC89F;" d="M168.286,185.536c0,0,2.268-38.953-17.614-36.167c-21.154,2.965-6.371,32.252-19.638,36.354
	c-9.352,2.89-27.134-9.676-30.717,4.261c-3.033,11.796,25.743,16.48,22.896,31.87c-2.846,15.391-29.828,21.404-18.791,36.219
	c10.74,14.416,33.406-13.804,35.111-2.435c2.991,19.944,30.916,25.584,30.003-5.124c-0.05-1.696-0.1-3.476-0.148-5.314
	c-4.338-9.795-7.528-20.04-7.528-31.107C161.86,203.982,164.519,194.558,168.286,185.536L168.286,185.536z"/>
<path style="fill:#F7B081;" d="M168.286,185.536c0,0,1.825-31.388-12.187-35.792c-9.214,20.096-24.282,40.28-24.282,64.348
	c0,21.349,11.856,39.641,20.965,57.527c8.308,2.15,17.276-3.487,16.753-21.107c-0.05-1.696-0.1-3.476-0.148-5.314
	c-0.265-0.6-0.527-1.201-0.783-1.804c-0.01-0.023-0.02-0.046-0.029-0.069c-0.247-0.582-0.49-1.166-0.727-1.75
	c-0.015-0.037-0.03-0.074-0.046-0.111c-0.239-0.59-0.473-1.182-0.702-1.775c-0.008-0.022-0.017-0.044-0.026-0.067
	c-0.952-2.479-1.811-4.99-2.543-7.54c-0.017-0.059-0.032-0.118-0.049-0.177c-0.157-0.553-0.309-1.107-0.455-1.663
	c-0.041-0.158-0.079-0.316-0.119-0.475c-0.117-0.461-0.231-0.921-0.338-1.384c-0.047-0.203-0.092-0.408-0.137-0.612
	c-0.094-0.419-0.185-0.838-0.271-1.26c-0.047-0.231-0.092-0.463-0.137-0.695c-0.077-0.398-0.151-0.797-0.221-1.197
	c-0.043-0.247-0.085-0.496-0.126-0.743c-0.063-0.389-0.123-0.778-0.179-1.169c-0.037-0.256-0.074-0.512-0.108-0.769
	c-0.051-0.39-0.097-0.78-0.141-1.172c-0.029-0.257-0.059-0.515-0.085-0.774c-0.04-0.4-0.073-0.802-0.105-1.204
	c-0.02-0.25-0.043-0.501-0.06-0.752c-0.029-0.434-0.049-0.87-0.069-1.307c-0.01-0.22-0.024-0.441-0.032-0.662
	c-0.022-0.644-0.034-1.29-0.035-1.939c0-0.013-0.001-0.026-0.001-0.039c0-0.618,0.01-1.233,0.03-1.846
	c0.001-0.013,0-0.026,0.001-0.038c0.012-0.381,0.035-0.759,0.055-1.138c0.013-0.244,0.02-0.49,0.035-0.733
	c0.019-0.291,0.047-0.581,0.07-0.871c0.026-0.328,0.048-0.658,0.079-0.984c0.027-0.28,0.062-0.559,0.093-0.839
	c0.036-0.333,0.069-0.668,0.111-1c0.037-0.295,0.083-0.589,0.124-0.883c0.044-0.314,0.084-0.63,0.133-0.943
	c0.038-0.242,0.082-0.483,0.123-0.724c0.061-0.365,0.119-0.729,0.185-1.092c0.037-0.199,0.079-0.398,0.118-0.597
	c0.077-0.401,0.154-0.802,0.238-1.202c0.041-0.193,0.087-0.385,0.13-0.577c0.089-0.405,0.177-0.81,0.273-1.213
	c0.036-0.15,0.076-0.3,0.113-0.451c0.108-0.442,0.217-0.883,0.333-1.322c0.04-0.149,0.083-0.296,0.123-0.445
	c0.119-0.441,0.239-0.88,0.367-1.319c0.033-0.112,0.068-0.223,0.101-0.335c0.139-0.473,0.28-0.944,0.428-1.415
	c0.03-0.094,0.062-0.188,0.092-0.282c0.155-0.487,0.311-0.972,0.475-1.457c0.024-0.071,0.049-0.141,0.074-0.211
	c0.172-0.507,0.346-1.012,0.528-1.516c0.022-0.06,0.045-0.12,0.066-0.18c0.186-0.515,0.375-1.027,0.569-1.539
	c0.008-0.02,0.016-0.04,0.023-0.059c0.209-0.549,0.422-1.097,0.64-1.642c0.025-0.062,0.05-0.123,0.075-0.185
	c0.203-0.506,0.409-1.01,0.619-1.514C168.285,185.539,168.286,185.538,168.286,185.536L168.286,185.536z"/>
<path style="fill:#FFC89F;" d="M343.714,185.536c0,0-2.268-38.953,17.614-36.167c21.154,2.965,6.371,32.252,19.638,36.354
	c9.352,2.89,27.134-9.676,30.717,4.261c3.033,11.796-25.743,16.48-22.896,31.87c2.846,15.391,29.828,21.404,18.791,36.219
	c-10.74,14.416-33.406-13.804-35.111-2.435c-2.991,19.944-30.916,25.584-30.003-5.124c0.05-1.696,0.1-3.476,0.148-5.314
	c4.338-9.795,7.528-20.04,7.528-31.107C350.14,203.982,347.481,194.558,343.714,185.536L343.714,185.536z"/>
<path d="M226.44,0.547c-12.469,0-22.614,10.144-22.614,22.614v40.654c0,4.148,3.362,7.51,7.51,7.51s7.51-3.363,7.51-7.511V23.16
	c0-4.187,3.406-7.593,7.593-7.593s7.592,3.406,7.592,7.593V222.79c-1.301-1.831-2.688-3.595-4.14-5.303
	c-0.064-0.075-0.127-0.15-0.191-0.224c-0.734-0.857-1.483-1.7-2.254-2.526c-0.045-0.048-0.088-0.097-0.133-0.145
	c-0.792-0.843-1.602-1.67-2.432-2.477c-0.162-0.158-0.329-0.309-0.493-0.466c-0.605-0.577-1.217-1.146-1.841-1.703
	c-0.335-0.3-0.675-0.597-1.015-0.891c-0.456-0.393-0.917-0.778-1.382-1.161c-0.408-0.336-0.814-0.674-1.228-1.001
	c-0.025-0.02-0.049-0.041-0.074-0.061V93.856c0-4.148-3.362-7.511-7.51-7.511s-7.51,3.363-7.51,7.511v103.818
	c-8.851-4.006-18.578-6.223-28.78-6.223h-1.013c0.073-0.193,0.141-0.387,0.215-0.58c0.065-0.167,0.134-0.337,0.2-0.506
	c2.928-7.424,6.764-14.649,10.543-21.755c10.463-19.679,21.282-40.028,12.338-63.417c-8.873-23.209-27.68-38.387-52.95-42.734
	c-36.679-6.311-78.896,11.33-107.55,44.941c-2.691,3.156-2.313,7.897,0.844,10.588c3.156,2.692,7.897,2.312,10.588-0.843
	c12.758-14.967,28.649-26.594,45.955-33.625c16.346-6.64,32.81-8.805,47.618-6.257c19.836,3.412,34.562,15.236,41.466,33.295
	c6.242,16.326-1.227,31.498-10.416,48.823c-1.577-4.872-3.947-9.427-7.488-12.694c-4.291-3.957-9.751-5.603-15.765-4.757
	c-17.921,2.513-18.858,18.253-19.419,27.657c-0.174,2.922-0.465,7.781-1.347,8.943c-0.014,0.005-0.029,0.01-0.049,0.016
	c-1.532,0.472-5.703-0.465-8.75-1.148c-4.53-1.017-9.215-2.067-13.801-1.457c-6.738,0.898-11.434,5.221-13.22,12.171
	c-2.726,10.597,6.512,17.098,13.257,21.844c6.134,4.316,10.111,7.381,9.528,10.53c-0.724,3.914-5.104,7.777-9.339,11.512
	c-6.965,6.143-18.623,16.423-8.089,30.56c4.412,5.923,11.048,8.321,18.693,6.745c5.278-1.087,10.188-3.776,14.519-6.15
	c0.558-0.305,1.198-0.656,1.85-1.005c3.651,10.209,12.789,17.432,22.617,17.432c0.592,0,1.188-0.026,1.782-0.079
	c5.912-0.53,11.054-3.689,14.479-8.895c0.282-0.429,0.534-0.887,0.79-1.341c9.075,17.132,16.356,32.179,10.169,48.358
	c-12.022,31.446-43.721,37.588-69.382,32.849c-24.848-4.588-49.261-19.539-66.984-41.018
	c-20.878-25.301-31.914-58.279-31.914-95.361c0-28.031,6.157-53.377,18.3-75.33c2.008-3.629,0.693-8.199-2.937-10.207
	c-3.629-2.008-8.199-0.691-10.206,2.937C6.788,155.697,0,183.488,0,214.092c0,40.614,12.223,76.897,35.347,104.923
	c19.934,24.161,47.578,41.011,75.842,46.23c6.252,1.155,12.399,1.728,18.375,1.728c11.899,0,23.106-2.275,33.057-6.77
	c16.196-7.316,28.197-20.184,34.71-37.214c8.943-23.388-1.877-43.737-12.339-63.416c-4.037-7.591-8.133-15.32-11.123-23.282h1.178
	c16.083,0,29.167,15.343,29.167,34.204v218.535c0,12.362,10.058,22.42,22.42,22.42s22.42-10.057,22.42-22.42V270.496
	c0-2.144-0.103-4.261-0.26-6.362c0.164-0.618,0.26-1.265,0.26-1.935V23.16C249.052,10.691,238.908,0.547,226.44,0.547z
	 M156.521,264.542c-3.219,0.29-8.524-3.107-9.56-10.019c-0.76-5.062-3.797-7.268-5.54-8.132c-1.488-0.738-2.983-1.05-4.491-1.05
	c-4.061,0-8.21,2.273-12.535,4.641c-9.055,4.96-12.315,5.8-13.95,3.604c-1.879-2.522-2.27-3.046,5.979-10.32
	c5.572-4.914,12.506-11.029,14.174-20.046c2.377-12.857-8.474-20.493-15.654-25.546c-2.451-1.725-6.483-4.561-7.291-6.047
	c0.117-0.4,0.226-0.631,0.29-0.747c1.486-0.472,6.242,0.595,8.831,1.177c5.471,1.228,11.127,2.498,16.476,0.843
	c10.817-3.344,11.474-14.367,11.954-22.416c0.678-11.355,1.922-13.032,6.51-13.675c1.798-0.251,2.696,0.186,3.494,0.92
	c4.398,4.048,5.915,17.499,5.634,26.139c-2.268,5.582-4.119,11.356-5.256,17.405c-0.033,0.176-0.065,0.352-0.097,0.527
	c-0.143,0.791-0.275,1.585-0.394,2.385c-0.1,0.675-0.191,1.349-0.271,2.021c-0.024,0.21-0.059,0.416-0.082,0.627
	c-0.017,0.156-0.023,0.31-0.038,0.467c-0.099,0.97-0.18,1.938-0.237,2.903c-0.005,0.079-0.013,0.156-0.018,0.234
	c-0.008,0.141-0.007,0.282-0.013,0.424c-0.053,1.079-0.087,2.155-0.087,3.233c0,0.659,0.01,1.318,0.03,1.978
	c0.008,0.282,0.025,0.566,0.037,0.848c0.009,0.209,0.017,0.419,0.027,0.628c0.006,0.11,0.008,0.221,0.015,0.331
	c0.003,0.054,0.006,0.109,0.009,0.163c0.021,0.354,0.051,0.708,0.078,1.061c0.023,0.305,0.043,0.611,0.07,0.917
	c0.027,0.301,0.061,0.604,0.092,0.905c0.027,0.267,0.053,0.535,0.083,0.8c0.011,0.096,0.022,0.191,0.033,0.287
	c0.044,0.373,0.097,0.746,0.147,1.12c0.04,0.296,0.078,0.593,0.122,0.891c0.019,0.128,0.037,0.255,0.056,0.383
	c0.067,0.438,0.14,0.872,0.214,1.307c0.019,0.11,0.04,0.22,0.059,0.331c0.052,0.292,0.108,0.587,0.164,0.88
	c1.313,6.976,3.579,13.581,6.331,19.955c0.036,1.323,0.073,2.612,0.109,3.857C162.269,258.802,160.107,264.22,156.521,264.542z
	 M234.031,489.032c0,4.08-3.319,7.399-7.399,7.399s-7.399-3.319-7.399-7.399V270.496c0-27.143-19.823-49.225-44.188-49.225h-5.146
	c-0.053-0.38-0.119-0.756-0.164-1.136c-0.006-0.05-0.011-0.099-0.016-0.148c-0.107-0.923-0.189-1.851-0.247-2.781
	c-0.006-0.096-0.01-0.192-0.015-0.289c-0.053-0.938-0.085-1.879-0.085-2.825c0-0.923,0.033-1.841,0.083-2.756
	c0.008-0.147,0.015-0.293,0.025-0.441c0.095-1.484,0.268-2.957,0.485-4.422h5.082c11.741,0,22.683,3.758,31.885,10.202
	c0.03,0.021,0.055,0.047,0.085,0.068c3.703,2.606,7.085,5.61,10.109,8.946c0.041,0.046,0.08,0.093,0.121,0.138
	c0.658,0.73,1.296,1.478,1.919,2.239c0.176,0.216,0.349,0.437,0.523,0.655c0.481,0.603,0.95,1.215,1.409,1.836
	c0.22,0.298,0.438,0.598,0.652,0.9c0.404,0.567,0.795,1.141,1.181,1.721c0.222,0.335,0.446,0.671,0.663,1.01
	c0.374,0.586,0.733,1.182,1.088,1.782c0.197,0.332,0.399,0.661,0.59,0.997c0.402,0.707,0.785,1.425,1.162,2.148
	c0.12,0.23,0.247,0.456,0.366,0.688c1.006,1.994,1.917,4.046,2.722,6.15c0.022,0.058,0.042,0.118,0.064,0.177
	c0.379,0.997,0.735,2.006,1.067,3.025c0.037,0.112,0.07,0.226,0.106,0.339c0.314,0.981,0.609,1.971,0.878,2.971
	c0.03,0.11,0.058,0.222,0.087,0.333c0.269,1.018,0.518,2.046,0.741,3.082c0.018,0.085,0.036,0.169,0.054,0.254
	c0.229,1.085,0.435,2.178,0.612,3.281c0.006,0.035,0.012,0.07,0.017,0.106c0.184,1.153,0.34,2.314,0.467,3.484
	c0.001,0.012,0.004,0.024,0.006,0.037c0.262,2.447,0.413,4.932,0.413,7.454v218.533H234.031z"/>
<path d="M476.653,109.169c-19.933-24.16-47.578-41.01-75.842-46.231c-18.699-3.452-36.484-1.709-51.431,5.042
	c-16.196,7.316-28.197,20.184-34.71,37.214c-8.943,23.389,1.877,43.737,12.339,63.417c3.775,7.101,7.609,14.321,10.537,21.739
	c0.069,0.175,0.141,0.352,0.209,0.528c0.074,0.19,0.141,0.383,0.213,0.574h-1.013c-10.202,0-19.929,2.216-28.78,6.223V23.16
	c0-12.469-10.144-22.614-22.614-22.614c-12.468,0-22.613,10.144-22.613,22.614v239.04c0,0.67,0.096,1.317,0.261,1.935
	c-0.157,2.101-0.261,4.218-0.261,6.362v80.956c0,4.148,3.363,7.511,7.51,7.511c4.149,0,7.51-3.363,7.51-7.511v-80.956
	c0-2.523,0.15-5.007,0.413-7.454c0.001-0.012,0.004-0.024,0.006-0.037c0.126-1.17,0.282-2.331,0.467-3.484
	c0.006-0.035,0.012-0.07,0.017-0.106c0.177-1.103,0.384-2.197,0.613-3.283c0.018-0.083,0.035-0.167,0.053-0.25
	c0.223-1.037,0.472-2.066,0.742-3.085c0.029-0.111,0.057-0.222,0.087-0.332c0.27-1,0.565-1.99,0.878-2.971
	c0.036-0.113,0.069-0.226,0.106-0.339c0.332-1.019,0.689-2.028,1.068-3.025c0.022-0.058,0.042-0.118,0.064-0.177
	c0.806-2.104,1.715-4.156,2.722-6.15c0.117-0.232,0.245-0.458,0.366-0.688c0.376-0.723,0.759-1.442,1.161-2.148
	c0.191-0.336,0.393-0.665,0.59-0.997c0.354-0.599,0.714-1.195,1.088-1.781c0.217-0.34,0.441-0.675,0.663-1.01
	c0.386-0.581,0.778-1.156,1.182-1.722c0.214-0.301,0.432-0.601,0.65-0.898c0.459-0.621,0.929-1.234,1.41-1.837
	c0.174-0.218,0.346-0.439,0.523-0.655c0.623-0.761,1.261-1.509,1.919-2.239c0.041-0.046,0.08-0.093,0.121-0.138
	c3.023-3.335,6.405-6.34,10.108-8.946c0.03-0.021,0.056-0.047,0.085-0.068c9.201-6.444,20.143-10.202,31.885-10.202h5.082
	c0.216,1.466,0.39,2.938,0.485,4.423c0.009,0.146,0.017,0.292,0.024,0.439c0.051,0.915,0.083,1.834,0.083,2.757
	c0,0.946-0.032,1.887-0.085,2.825c-0.005,0.096-0.009,0.192-0.015,0.289c-0.058,0.93-0.14,1.858-0.247,2.781
	c-0.006,0.049-0.011,0.099-0.017,0.148c-0.045,0.381-0.111,0.757-0.164,1.136h-5.146c-24.365,0-44.188,22.082-44.188,49.225v218.535
	c0,4.08-3.319,7.399-7.399,7.399c-4.08,0-7.399-3.319-7.399-7.399V381.494c0-4.148-3.362-7.51-7.51-7.51
	c-4.148,0-7.51,3.363-7.51,7.51v107.537c0,12.362,10.058,22.42,22.42,22.42c12.362,0,22.42-10.057,22.42-22.42V270.496
	c0-18.86,13.083-34.204,29.167-34.204h1.178c-2.99,7.961-7.087,15.69-11.123,23.282c-10.463,19.679-21.282,40.028-12.339,63.416
	c8.799,23.013,27.401,38.155,52.381,42.635c5.101,0.914,10.313,1.361,15.592,1.361c32.098-0.001,66.505-16.515,91.205-44.671
	c2.735-3.118,2.425-7.863-0.692-10.599c-3.117-2.735-7.864-2.424-10.599,0.693c-25.364,28.913-61.812,44-92.855,38.431
	c-19.594-3.514-34.155-15.309-41-33.213c-6.187-16.179,1.095-31.226,10.169-48.358c0.257,0.453,0.509,0.911,0.79,1.341
	c3.425,5.206,8.567,8.366,14.479,8.895c0.597,0.053,1.191,0.079,1.782,0.079c9.827,0,18.965-7.224,22.616-17.432
	c0.652,0.349,1.293,0.7,1.851,1.005c4.331,2.373,9.241,5.063,14.519,6.15c7.643,1.576,14.28-0.821,18.693-6.744
	c10.533-14.138-1.125-24.418-8.089-30.561c-4.235-3.735-8.616-7.598-9.339-11.511c-0.583-3.149,3.395-6.215,9.528-10.531
	c6.744-4.747,15.982-11.247,13.257-21.844c-1.786-6.95-6.482-11.272-13.22-12.171c-4.582-0.613-9.27,0.44-13.801,1.457
	c-3.048,0.684-7.222,1.62-8.75,1.148c-0.02-0.006-0.035-0.011-0.049-0.016c-0.883-1.162-1.173-6.021-1.347-8.944
	c-0.56-9.404-1.499-25.144-19.419-27.657c-6.018-0.844-11.474,0.799-15.765,4.757c-3.542,3.266-5.911,7.821-7.488,12.694
	c-9.187-17.325-16.657-32.497-10.416-48.823c12.023-31.445,43.725-37.587,69.382-32.849c24.848,4.587,49.261,19.538,66.984,41.018
	c20.878,25.304,31.913,58.28,31.913,95.363c0,27.685-6.011,52.764-17.867,74.541c-1.983,3.643-0.639,8.203,3.005,10.187
	c3.641,1.982,8.203,0.638,10.187-3.004c13.069-24.005,19.696-51.501,19.696-81.723C512,173.479,499.777,137.197,476.653,109.169z
	 M277.969,222.788V23.16c0-4.187,3.405-7.593,7.592-7.593s7.593,3.406,7.593,7.593v183.67c-0.025,0.02-0.049,0.041-0.074,0.061
	c-0.417,0.328-0.823,0.668-1.233,1.005c-0.462,0.38-0.92,0.763-1.373,1.153c-0.343,0.297-0.685,0.596-1.024,0.899
	c-0.619,0.554-1.227,1.119-1.828,1.691c-0.167,0.16-0.339,0.315-0.505,0.477c-0.828,0.806-1.637,1.631-2.427,2.472
	c-0.048,0.051-0.094,0.103-0.141,0.154c-0.768,0.822-1.515,1.662-2.247,2.517c-0.065,0.076-0.13,0.152-0.195,0.228
	C280.655,219.195,279.27,220.959,277.969,222.788z M356.787,157.732c0.799-0.737,1.695-1.178,3.498-0.924
	c4.587,0.644,5.832,2.32,6.509,13.675c0.481,8.049,1.138,19.073,11.955,22.416c5.35,1.654,11.005,0.385,16.476-0.843
	c2.59-0.582,7.343-1.647,8.831-1.177c0.064,0.116,0.173,0.347,0.29,0.747c-0.809,1.486-4.84,4.322-7.291,6.047
	c-7.18,5.053-18.031,12.689-15.654,25.547c1.667,9.016,8.602,15.131,14.174,20.045c8.249,7.274,7.858,7.799,5.979,10.32
	c-1.636,2.197-4.897,1.356-13.949-3.605c-5.93-3.249-11.532-6.316-17.026-3.591c-1.742,0.864-4.78,3.07-5.54,8.133
	c-1.036,6.909-6.308,10.298-9.56,10.018c-3.586-0.321-5.748-5.74-5.508-13.807c0.036-1.244,0.073-2.532,0.109-3.854
	c2.752-6.374,5.017-12.979,6.331-19.956c0.056-0.293,0.112-0.587,0.164-0.879c0.02-0.111,0.04-0.222,0.059-0.332
	c0.074-0.434,0.147-0.868,0.214-1.305c0.02-0.129,0.038-0.257,0.057-0.387c0.044-0.296,0.082-0.591,0.122-0.886
	c0.051-0.375,0.103-0.75,0.147-1.124c0.012-0.096,0.022-0.191,0.033-0.287c0.03-0.266,0.056-0.534,0.083-0.801
	c0.031-0.301,0.065-0.604,0.092-0.905c0.027-0.306,0.047-0.612,0.07-0.917c0.027-0.353,0.057-0.708,0.078-1.061
	c0.003-0.054,0.006-0.108,0.009-0.163c0.006-0.11,0.009-0.221,0.015-0.331c0.01-0.202,0.018-0.405,0.027-0.607
	c0.012-0.29,0.03-0.58,0.038-0.87c0.02-0.66,0.03-1.318,0.03-1.976c0-1.079-0.034-2.156-0.087-3.235
	c-0.007-0.14-0.006-0.281-0.013-0.422c-0.004-0.079-0.013-0.156-0.018-0.234c-0.057-0.966-0.137-1.935-0.237-2.906
	c-0.016-0.155-0.021-0.308-0.038-0.464c-0.023-0.21-0.057-0.417-0.082-0.627c-0.08-0.671-0.17-1.345-0.271-2.021
	c-0.117-0.8-0.25-1.594-0.394-2.385c-0.032-0.175-0.064-0.35-0.097-0.527c-1.138-6.051-2.988-11.827-5.258-17.41
	C350.858,175.245,352.364,161.81,356.787,157.732z"/>
<g>
</g>
<g>
</g>
<g>
</g>
<g>
</g>
<g>
</g>
<g>
</g>
<g>
</g>
<g>
</g>
<g>
</g>
<g>
</g>
<g>
</g>
<g>
</g>
<g>
</g>
<g>
</g>
<g>
</g>
</svg>
