<svg id="Layer_1" enable-background="new 0 0 512 512" height="512" viewBox="0 0 512 512" width="512" xmlns="http://www.w3.org/2000/svg"><g><path d="m341.52 299.53h-118.37c-6.16 0-11.15-4.99-11.15-11.15v-18.92c0-6.16 4.99-11.15 11.15-11.15h118.37c6.16 0 11.15 4.99 11.15 11.15v18.92c0 6.16-4.99 11.15-11.15 11.15z" fill="#f76c82"/></g><g><path d="m322.4 222.47-16.5-.48c-20.07-.58-37.59-13.74-43.76-32.85-3.6-11.16 7.2-21.59 18.23-17.6l47.97 17.37c5.95 2.16 10.29 7.34 11.37 13.58 1.84 10.65-6.53 20.29-17.31 19.98z" fill="#d4e1e8"/></g><g><path d="m320.09 376.48c9.13-5.06 19.8 3.48 16.87 13.5l-26.15 89.32c-1.08 3.69-4.46 6.22-8.3 6.22-4.96 0-8.91-4.17-8.64-9.13l3.5-63.67c.83-15.18 9.41-28.87 22.72-36.24z" fill="#d4e1e8"/></g><g fill="#424852"><path d="m378.9 158.45c-7.18-6.79-18.09-7.96-26.53-2.83l-11.41 6.93c-13.84-9.5-26.32-20.82-37.07-33.74l-95.77-115.05c-1.24-1.49-3.44-1.69-4.93-.45s-1.69 3.44-.45 4.93l95.77 115.05c11.89 14.28 25.77 26.71 41.27 36.94 9.15 6.04 14.61 16.19 14.61 27.16v18.56c0 21.42-17.43 38.86-38.86 38.86h-74.57c-16.83 0-30.53-13.7-30.53-30.53 0-6.27 1.89-12.3 5.48-17.45l4.13-5.94c8.95-12.84 8.34-30.33-1.48-42.52l-94.2-116.96c-1.21-1.5-3.42-1.74-4.92-.53-1.51 1.21-1.74 3.42-.53 4.92l94.2 116.96c7.88 9.78 8.37 23.82 1.19 34.13l-4.13 5.94c-4.4 6.32-6.73 13.74-6.73 21.45 0 20.69 16.84 37.53 37.53 37.53h74.57c13.51 0 25.67-5.88 34.07-15.2l1.24 1.8c3.58 5.19 9.45 8.27 15.75 8.27h.21c6.37-.07 12.27-3.29 15.77-8.61 4.06-6.17 6.66-13.3 7.54-20.63l3.41-28.55c1.78-14.97-3.69-30.09-14.63-40.44zm-31.77 8.54 8.88-5.39c5.76-3.5 13.19-2.7 18.08 1.93 4.15 3.93 7.37 8.66 9.54 13.82h-.96c-9.92 0-18.39 6.27-21.61 14.93-1.28-9.89-6.24-18.9-13.93-25.29z"/><path d="m229.12 135.41c9.68 11.44 15.03 25.99 15.06 40.97l.01 2.85v10.78c0 6.7 1.18 13.29 3.51 19.57 7.76 20.93 27.97 34.99 50.29 34.99 7.68 0 15.42-1.69 22.39-4.9l5.45-2.51c1.76-.81 2.53-2.89 1.72-4.64-.81-1.76-2.89-2.52-4.64-1.72l-5.45 2.51c-6.06 2.79-12.8 4.26-19.47 4.26-19.4 0-36.98-12.22-43.72-30.42-2.04-5.5-3.07-11.27-3.07-17.14v-10.79l-.01-2.86c-.04-16.63-5.97-32.78-16.72-45.47l-85.03-100.49c-1.25-1.48-3.46-1.66-4.93-.41-1.48 1.25-1.66 3.46-.41 4.93z"/><path d="m256.74 419.59c-1.92-.12-3.59 1.35-3.71 3.28l-4.5 72.92c-.12 1.93 1.35 3.59 3.28 3.71.07 0 .15.01.22.01 1.83 0 3.38-1.43 3.49-3.28l4.5-72.92c.11-1.94-1.35-3.6-3.28-3.72z"/><path d="m324.69 296.03h-87.54c-19.15 0-34.74 15.58-34.74 34.74v25.09c0 18.64 2.64 37.17 7.84 55.07 7.22 24.85 10.89 50.58 10.89 76.46v8.61c0 1.93 1.57 3.5 3.5 3.5s3.5-1.57 3.5-3.5v-8.61c0-26.54-3.76-52.93-11.17-78.42-5.02-17.27-7.56-35.14-7.56-53.12v-25.09c0-15.3 12.44-27.74 27.74-27.74h87.54c10.93 0 20.82 5.85 26.27 14.9l-11.47 16.19c-9.36 13.21-24.61 21.1-40.8 21.1h-47.71c-9.41 0-18.55-2.71-26.45-7.84-1.62-1.05-3.79-.59-4.84 1.03s-.59 3.79 1.03 4.84c9.03 5.86 19.49 8.96 30.26 8.96h47.71c18.46 0 35.84-8.99 46.51-24.05l9.01-12.72c.01.04.03.09.04.13 8.47 30.87 7.88 63.34-1.7 93.89l-23.67 75.49c-.58 1.84.45 3.81 2.29 4.39.35.11.7.16 1.05.16 1.49 0 2.87-.96 3.34-2.45l23.67-75.49c9.98-31.83 10.59-65.66 1.77-97.83-4.46-16.3-19.4-27.69-36.31-27.69z"/></g></svg>