<svg width="8192" height="5789" version="1.1" xmlns="http://www.w3.org/2000/svg" desc="Created with imagetracer.js version 1.2.6" ><path fill="rgb(0,0,0)" stroke="rgb(0,0,0)" stroke-width="1" opacity="0" d="M 0 0 L 8192 0 L 8192 5789 L 0 5789 L 0 0 Z M 1747 1943 L 1746 1944 L 1736 1944 L 1735 1945 L 1718 1947 L 1686 1957 Q 1654 1970 1631 1992 Q 1604 2016 1587 2051 Q 1579 2067 1574 2088 L 1570 2111 L 1570 2124 L 1569 2125 L 1569 2139 L 1570 2140 L 1571 2161 L 1576 2184 L 1581 2199 Q 1594 2231 1615 2256 Q 1636 2280 1665 2296 L 1690 2308 L 1705 2313 L 1721 2317 L 1732 2318 L 1733 2319 L 1742 2319 L 1743 2320 L 1774 2320 L 1775 2319 L 1783 2319 L 1800 2316 L 1824 2309 Q 1859 2296 1885 2272 Q 1907 2252 1922 2226 Q 1933 2206 1940 2183 L 1946 2150 L 1946 2114 Q 1943 2112 1945 2106 L 1939 2078 L 1935 2066 Q 1920 2027 1893 2000 Q 1865 1970 1823 1954 L 1788 1945 L 1770 1944 L 1769 1943 L 1747 1943 Z M 3480 1943 L 3480 3415 L 3727 3415 L 3727 2913 L 4025 2913 L 4451 3415 L 4759 3415 L 4312 2899 L 4315 2897 L 4343 2891 L 4382 2879 L 4431 2859 Q 4495 2829 4545 2784 Q 4610 2726 4649 2641 L 4662 2609 L 4677 2559 L 4687 2505 L 4688 2489 L 4689 2488 L 4689 2477 L 4690 2476 L 4690 2462 L 4691 2461 L 4691 2398 L 4690 2397 L 4690 2383 L 4689 2382 L 4688 2362 L 4687 2361 L 4685 2340 L 4679 2308 L 4668 2267 Q 4637 2170 4576 2104 Q 4525 2047 4456 2009 Q 4411 1985 4359 1969 L 4312 1957 L 4273 1950 L 4241 1947 L 4240 1946 L 4215 1945 L 4214 1944 L 4192 1944 L 4191 1943 L 3480 1943 Z M 4793 1943 L 5402 3414 L 5403 3415 L 5669 3415 L 5671 3408 L 6276 1944 L 6011 1943 L 6002 1962 L 5534 3127 L 5298 2532 L 5059 1945 L 5059 1943 L 4793 1943 Z M 6470 1943 L 6470 3415 L 6717 3415 L 6717 2913 L 7015 2913 L 7441 3415 L 7749 3415 L 7302 2899 L 7305 2897 L 7333 2891 L 7369 2880 L 7421 2859 Q 7485 2828 7536 2783 Q 7600 2725 7639 2641 L 7659 2588 L 7669 2550 L 7676 2512 L 7678 2488 L 7679 2487 L 7679 2477 L 7680 2476 L 7680 2461 L 7681 2460 L 7681 2399 L 7680 2398 L 7680 2383 L 7679 2382 L 7677 2354 L 7668 2304 L 7657 2264 Q 7626 2168 7565 2103 Q 7514 2046 7444 2008 Q 7400 1985 7349 1969 L 7302 1957 L 7263 1950 L 7231 1947 L 7230 1946 L 7205 1945 L 7204 1944 L 7182 1944 L 7181 1943 L 6470 1943 Z M 2442 1971 L 2442 1998 L 2481 1998 L 2481 1999 L 2481 2098 L 2511 2098 L 2511 2098 L 2511 1998 L 2551 1998 L 2551 1972 L 2551 1971 L 2442 1971 Z M 2572 1971 L 2572 2098 L 2573 2098 L 2601 2098 L 2602 2019 L 2636 2069 Q 2635 2072 2639 2070 L 2672 2021 L 2674 2020 L 2674 2098 L 2704 2098 L 2704 1972 L 2704 1971 L 2673 1971 L 2639 2022 Q 2640 2024 2638 2023 L 2605 1973 L 2604 1971 L 2572 1971 Z M 1287 2131 L 1223 2163 L 1164 2200 Q 1106 2240 1056 2288 Q 966 2373 900 2482 Q 872 2528 849 2581 L 827 2636 L 813 2678 L 810 2691 L 753 2692 L 752 2693 L 732 2694 L 731 2695 L 716 2696 L 697 2700 L 692 2700 L 642 2712 L 614 2721 L 583 2733 Q 520 2760 468 2797 Q 418 2832 376 2874 Q 320 2929 273 2994 L 242 3039 L 232 3063 L 229 3078 L 229 3103 L 232 3118 Q 238 3139 251 3155 Q 263 3170 282 3180 L 304 3189 L 320 3192 L 342 3192 L 362 3188 Q 382 3181 397 3169 L 413 3152 Q 450 3094 495 3045 Q 551 2982 626 2939 Q 658 2921 697 2909 L 735 2900 L 754 2898 L 755 2897 L 774 2896 L 774 2913 L 773 2914 L 773 2951 L 772 2952 L 773 3009 L 774 3010 L 774 3028 L 775 3029 L 776 3056 L 777 3057 L 777 3067 L 778 3068 L 778 3077 L 779 3078 L 782 3111 L 783 3112 L 784 3126 L 786 3133 L 790 3163 L 800 3211 L 809 3246 L 819 3280 L 838 3335 Q 913 3532 1048 3670 Q 1110 3735 1193 3780 Q 1226 3799 1267 3811 L 1303 3820 L 1321 3822 L 1322 3823 L 1329 3823 L 1330 3824 L 1341 3824 L 1342 3825 L 1383 3825 L 1384 3824 L 1402 3823 L 1424 3819 L 1453 3811 Q 1507 3791 1547 3756 Q 1587 3719 1610 3665 L 1621 3635 L 1630 3600 L 1634 3570 L 1635 3569 L 1636 3549 L 1637 3548 L 1637 3531 L 1638 3530 L 1638 3497 L 1637 3496 L 1636 3465 L 1635 3464 L 1635 3455 L 1634 3454 L 1632 3432 L 1624 3389 L 1616 3357 L 1603 3315 L 1579 3254 Q 1546 3180 1503 3118 Q 1462 3058 1413 3006 Q 1374 2963 1330 2926 Q 1275 2880 1216 2839 Q 1169 2807 1119 2780 Q 1068 2752 1011 2732 L 1020 2703 L 1037 2661 Q 1053 2625 1072 2593 Q 1117 2517 1176 2457 Q 1221 2411 1274 2373 L 1291 2386 L 1324 2416 Q 1376 2466 1422 2522 Q 1482 2593 1536 2671 Q 1590 2748 1640 2830 Q 1701 2930 1758 3035 Q 1852 2856 1963 2694 Q 2049 2567 2151 2457 Q 2193 2412 2241 2373 Q 2289 2406 2330 2447 Q 2393 2509 2440 2588 Q 2463 2625 2481 2668 L 2496 2706 L 2504 2732 L 2482 2740 L 2445 2756 L 2395 2781 L 2321 2825 Q 2229 2885 2151 2957 Q 2036 3062 1959 3206 L 1927 3275 L 1914 3309 L 1900 3353 L 1889 3398 L 1883 3431 L 1881 3453 L 1880 3454 L 1880 3463 L 1879 3464 L 1879 3475 L 1878 3476 L 1878 3493 L 1877 3494 L 1877 3532 L 1878 3533 L 1879 3561 L 1880 3562 L 1880 3569 L 1881 3570 L 1881 3577 L 1884 3590 L 1884 3595 L 1893 3632 Q 1913 3696 1953 3741 Q 1988 3779 2040 3802 L 2066 3812 L 2096 3820 L 2113 3822 L 2114 3823 L 2121 3823 L 2122 3824 L 2132 3824 L 2133 3825 L 2174 3825 L 2175 3824 L 2186 3824 L 2187 3823 L 2194 3823 L 2195 3822 L 2213 3820 L 2249 3811 L 2285 3798 Q 2323 3782 2357 3760 Q 2402 3730 2442 3694 Q 2580 3564 2660 3377 Q 2679 3331 2695 3283 L 2711 3227 L 2719 3193 L 2728 3145 L 2733 3104 L 2734 3103 L 2737 3067 L 2738 3066 L 2738 3056 L 2739 3055 L 2740 3028 L 2741 3027 L 2741 3008 L 2742 3007 L 2742 2916 L 2741 2915 L 2741 2896 L 2761 2897 L 2762 2898 L 2775 2899 L 2796 2903 Q 2832 2912 2864 2926 Q 2931 2958 2982 3006 Q 3052 3072 3105 3156 Q 3117 3170 3135 3180 L 3154 3188 L 3174 3192 L 3196 3192 L 3215 3188 Q 3235 3182 3250 3169 Q 3264 3157 3274 3140 L 3282 3121 L 3286 3102 L 3286 3079 L 3285 3078 L 3284 3067 Q 3280 3049 3271 3036 Q 3218 2954 3152 2887 Q 3104 2837 3048 2797 Q 2998 2762 2940 2736 L 2887 2716 L 2863 2709 L 2824 2700 L 2801 2697 L 2800 2696 L 2785 2695 L 2784 2694 L 2764 2693 L 2763 2692 L 2705 2691 L 2702 2678 L 2688 2636 L 2672 2595 Q 2650 2541 2622 2494 Q 2567 2400 2495 2324 Q 2434 2259 2362 2207 Q 2329 2183 2293 2163 L 2229 2131 Q 2132 2190 2053 2266 Q 1975 2340 1908 2425 Q 1828 2524 1758 2633 Q 1701 2547 1640 2467 Q 1579 2387 1511 2315 Q 1459 2260 1402 2212 Q 1347 2168 1287 2131 Z M 3541 3581 L 3520 3585 L 3500 3595 Q 3485 3605 3480 3626 Q 3478 3651 3489 3664 Q 3499 3675 3516 3681 L 3539 3687 L 3571 3692 L 3587 3699 Q 3593 3703 3595 3712 Q 3596 3722 3591 3728 Q 3586 3734 3579 3737 L 3564 3741 L 3540 3741 L 3526 3738 Q 3505 3732 3492 3721 L 3476 3743 L 3476 3745 Q 3490 3756 3509 3763 L 3523 3767 L 3533 3769 L 3540 3769 L 3541 3770 Q 3584 3773 3607 3755 L 3620 3741 L 3625 3729 L 3626 3717 L 3627 3716 L 3625 3700 L 3620 3689 Q 3611 3676 3596 3670 L 3573 3663 L 3537 3657 L 3519 3649 Q 3513 3645 3511 3639 Q 3509 3627 3514 3623 L 3523 3615 L 3532 3611 L 3541 3609 L 3562 3609 L 3572 3611 Q 3589 3616 3603 3626 L 3618 3603 Q 3603 3591 3582 3585 L 3561 3581 L 3541 3581 Z M 4886 3583 L 4880 3585 Q 4873 3589 4871 3597 Q 4869 3607 4873 3612 Q 4877 3618 4887 3620 Q 4897 3620 4903 3616 Q 4907 3612 4909 3606 Q 4910 3595 4906 3591 Q 4901 3582 4886 3583 Z M 5177 3583 L 5170 3586 Q 5164 3590 5162 3597 Q 5161 3606 5164 3612 Q 5168 3618 5178 3620 L 5185 3620 L 5193 3617 Q 5198 3614 5200 3607 Q 5202 3595 5197 3591 Q 5192 3582 5177 3583 Z M 5101 3585 L 5101 3766 L 5102 3766 L 5131 3766 L 5131 3586 L 5131 3585 L 5101 3585 Z M 5272 3601 L 5271 3602 L 5244 3604 L 5242 3606 L 5242 3638 L 5218 3638 L 5218 3663 L 5242 3663 L 5242 3728 L 5246 3746 L 5251 3755 Q 5259 3765 5276 3768 L 5296 3768 L 5308 3765 L 5314 3762 L 5306 3738 L 5292 3742 L 5281 3740 L 5274 3734 L 5272 3727 L 5272 3663 L 5309 3663 L 5309 3638 L 5272 3638 L 5272 3601 Z M 6023 3601 L 6013 3603 L 6004 3603 L 6003 3604 L 5995 3604 L 5994 3605 L 5994 3638 L 5970 3638 L 5970 3663 L 5994 3663 L 5994 3734 L 5998 3748 L 6004 3757 Q 6012 3765 6027 3768 L 6047 3768 L 6062 3764 L 6065 3762 Q 6062 3748 6057 3738 L 6043 3742 Q 6035 3742 6031 3739 L 6026 3735 L 6023 3725 L 6023 3663 L 6060 3663 L 6060 3638 L 6023 3638 L 6023 3601 Z M 3874 3635 L 3855 3640 L 3841 3649 L 3837 3654 L 3836 3654 L 3836 3638 L 3809 3638 L 3809 3825 L 3810 3825 L 3839 3825 L 3840 3754 Q 3847 3761 3857 3765 L 3872 3769 L 3893 3769 Q 3894 3767 3899 3768 Q 3914 3764 3925 3755 L 3936 3742 L 3942 3730 L 3946 3713 L 3946 3692 Q 3944 3690 3945 3686 Q 3942 3669 3933 3659 Q 3923 3646 3908 3639 L 3891 3635 L 3874 3635 Z M 4026 3635 L 4025 3636 L 4013 3637 L 4004 3640 L 3986 3651 Q 3977 3659 3971 3671 L 3967 3682 L 3965 3693 L 3966 3719 Q 3969 3735 3978 3746 Q 3986 3756 3998 3762 L 4010 3767 L 4025 3770 L 4044 3770 L 4045 3769 L 4056 3768 L 4074 3761 L 4089 3750 L 4090 3747 L 4073 3730 L 4058 3739 L 4042 3743 L 4024 3742 L 4010 3736 Q 4000 3729 3996 3717 L 3997 3713 L 4098 3713 Q 4100 3676 4084 3657 Q 4067 3634 4026 3635 Z M 4184 3635 L 4169 3639 L 4160 3645 L 4151 3656 L 4150 3656 L 4150 3638 L 4123 3638 L 4123 3766 L 4124 3766 L 4153 3766 L 4153 3698 L 4155 3688 L 4162 3675 Q 4168 3666 4181 3664 L 4197 3665 L 4209 3671 L 4221 3647 Q 4209 3634 4184 3635 Z M 4340 3635 L 4323 3639 L 4310 3646 L 4301 3655 L 4297 3663 L 4295 3672 L 4296 3684 L 4303 3697 Q 4311 3705 4323 3709 Q 4338 3714 4358 3715 L 4370 3719 L 4375 3726 L 4374 3735 L 4366 3741 L 4357 3743 L 4343 3743 L 4328 3740 Q 4315 3737 4307 3729 L 4304 3729 L 4292 3749 L 4292 3751 Q 4301 3758 4313 3763 L 4336 3769 L 4364 3769 L 4369 3768 Q 4383 3765 4393 3757 Q 4402 3749 4405 3736 L 4405 3722 L 4399 3708 Q 4392 3699 4382 3695 L 4365 3690 L 4340 3687 L 4330 3683 L 4325 3678 Q 4324 3671 4327 3668 L 4334 3663 L 4348 3660 L 4357 3660 L 4373 3663 L 4390 3671 L 4402 3652 L 4402 3650 L 4388 3641 L 4371 3636 Q 4365 3638 4364 3635 L 4340 3635 Z M 4494 3635 L 4473 3641 L 4460 3650 L 4458 3653 L 4456 3654 L 4456 3638 L 4429 3638 L 4429 3825 L 4430 3825 L 4459 3825 L 4460 3754 Q 4467 3761 4477 3765 L 4492 3769 L 4513 3769 L 4523 3767 Q 4536 3763 4545 3755 L 4558 3739 L 4564 3724 L 4566 3714 L 4566 3692 L 4563 3678 Q 4558 3663 4549 3654 Q 4539 3642 4522 3637 L 4511 3635 L 4494 3635 Z M 4646 3635 L 4645 3636 L 4633 3637 L 4624 3640 Q 4612 3645 4604 3653 Q 4595 3661 4590 3674 L 4585 3695 L 4585 3711 L 4586 3712 L 4587 3723 Q 4591 3736 4598 3746 Q 4606 3756 4618 3762 L 4634 3768 L 4645 3770 L 4665 3770 L 4676 3768 Q 4694 3763 4707 3752 Q 4710 3752 4710 3747 L 4693 3730 L 4676 3740 L 4662 3743 L 4644 3742 L 4629 3735 Q 4619 3729 4616 3716 L 4617 3713 L 4718 3713 L 4718 3691 Q 4716 3689 4717 3685 Q 4714 3668 4705 3658 Q 4688 3634 4646 3635 Z M 4795 3635 L 4777 3639 L 4759 3649 L 4744 3666 L 4737 3683 L 4736 3694 L 4735 3695 Q 4734 3730 4750 3748 L 4767 3761 L 4782 3767 L 4793 3769 Q 4836 3772 4854 3749 L 4837 3729 L 4835 3729 Q 4829 3736 4821 3739 L 4810 3742 Q 4790 3743 4781 3735 Q 4768 3727 4765 3709 Q 4764 3687 4773 3677 L 4783 3668 L 4795 3663 Q 4800 3665 4802 3662 L 4814 3663 L 4820 3665 L 4834 3674 L 4836 3674 L 4851 3658 L 4852 3655 Q 4843 3644 4829 3639 L 4813 3635 L 4795 3635 Z M 4985 3635 L 4971 3638 L 4954 3647 L 4938 3665 L 4931 3682 L 4929 3693 L 4929 3712 L 4932 3727 Q 4937 3740 4945 3750 L 4963 3763 L 4983 3769 L 5004 3769 L 5009 3768 Q 5023 3765 5033 3757 L 5039 3752 L 5039 3766 L 5066 3766 L 5066 3639 L 5066 3638 L 5039 3638 L 5039 3653 Q 5030 3643 5016 3638 L 5002 3635 L 4985 3635 Z M 5593 3635 L 5575 3639 L 5557 3649 L 5542 3666 L 5535 3683 L 5533 3694 Q 5531 3730 5548 3748 L 5565 3761 L 5580 3767 L 5591 3769 Q 5634 3772 5652 3749 L 5635 3729 L 5633 3729 Q 5627 3736 5619 3739 L 5608 3742 Q 5588 3743 5579 3735 Q 5566 3727 5563 3709 Q 5562 3687 5571 3677 L 5581 3668 L 5593 3663 Q 5598 3665 5600 3662 L 5612 3663 L 5618 3665 L 5632 3674 L 5634 3674 L 5649 3658 L 5650 3655 Q 5641 3644 5627 3639 L 5611 3635 L 5593 3635 Z M 5725 3635 L 5703 3640 L 5689 3648 L 5673 3666 L 5667 3680 L 5664 3696 L 5664 3709 L 5667 3726 Q 5671 3738 5678 3747 L 5694 3760 L 5713 3768 L 5724 3769 L 5725 3770 L 5744 3770 L 5762 3766 Q 5778 3760 5789 3749 L 5789 3747 L 5773 3730 L 5771 3730 L 5760 3738 L 5742 3743 L 5723 3742 L 5708 3735 Q 5698 3728 5695 3716 L 5696 3713 L 5797 3713 L 5797 3690 Q 5795 3688 5796 3684 Q 5793 3669 5785 3659 Q 5768 3634 5725 3635 Z M 5888 3635 L 5868 3640 L 5853 3650 L 5851 3653 L 5849 3648 L 5849 3638 L 5823 3638 L 5823 3766 L 5824 3766 L 5852 3766 L 5852 3698 L 5855 3684 L 5859 3677 L 5870 3667 L 5876 3664 L 5886 3662 L 5897 3663 L 5907 3668 Q 5916 3675 5918 3689 L 5918 3766 L 5948 3766 L 5948 3685 L 5944 3669 L 5937 3656 Q 5928 3644 5914 3638 L 5899 3635 L 5888 3635 Z M 6145 3635 L 6133 3638 L 6124 3643 L 6113 3655 L 6112 3641 L 6111 3640 L 6111 3638 L 6085 3638 L 6085 3766 L 6086 3766 L 6115 3766 L 6115 3694 Q 6117 3683 6122 3677 Q 6129 3667 6143 3664 Q 6161 3663 6170 3671 L 6183 3647 Q 6170 3634 6145 3635 Z M 6251 3635 L 6231 3639 L 6212 3650 L 6198 3667 L 6192 3682 L 6190 3692 L 6190 3714 L 6192 3724 L 6197 3737 L 6208 3752 L 6227 3764 L 6235 3767 L 6250 3770 L 6269 3770 L 6284 3767 Q 6298 3763 6308 3755 L 6315 3747 L 6298 3730 L 6283 3739 L 6267 3743 Q 6242 3744 6231 3733 Q 6224 3727 6221 3718 Q 6220 3713 6222 3713 L 6323 3713 L 6323 3694 L 6320 3678 Q 6316 3665 6309 3657 Q 6299 3645 6284 3639 L 6264 3635 L 6251 3635 Z M 3651 3638 L 3651 3722 Q 3654 3738 3662 3750 L 3678 3763 L 3697 3769 Q 3726 3771 3741 3758 L 3748 3752 L 3748 3766 L 3775 3766 L 3775 3639 L 3775 3638 L 3745 3638 L 3745 3710 L 3742 3722 L 3738 3729 Q 3730 3739 3715 3742 Q 3699 3743 3692 3736 L 3684 3727 L 3681 3718 L 3681 3710 L 3680 3709 L 3680 3638 L 3651 3638 Z M 4875 3638 L 4875 3766 L 4876 3766 L 4904 3766 L 4904 3639 L 4904 3638 L 4875 3638 Z M 5166 3638 L 5166 3766 L 5167 3766 L 5196 3766 L 5196 3639 L 5196 3638 L 5166 3638 Z M 5320 3638 L 5370 3765 L 5344 3825 L 5377 3825 L 5457 3640 L 5457 3638 L 5426 3638 L 5423 3642 L 5388 3728 Q 5389 3731 5386 3730 L 5353 3640 L 5352 3638 L 5320 3638 Z " /><path fill="rgb(0,0,0)" stroke="rgb(0,0,0)" stroke-width="1" opacity="0" d="M 3725 2171 L 4183.5 2171 L 4184.5 2172 L 4200.5 2172 L 4201.5 2173 L 4220.5 2174 L 4249.5 2179 L 4269.5 2184 L 4312.5 2200 Q 4358.6 2221.9 4390 2258.5 Q 4420 2293 4435 2342.5 L 4440 2361.5 L 4444 2384.5 L 4445 2401.5 L 4446 2402.5 L 4447 2436.5 L 4446 2437.5 L 4446 2456.5 L 4445 2457.5 L 4445 2466.5 L 4444 2467.5 L 4442 2487.5 L 4437 2509.5 L 4429 2534.5 Q 4410.4 2582.4 4376.5 2615 Q 4348.1 2642.6 4309.5 2660 L 4267.5 2675 L 4241.5 2681 L 4223.5 2683 L 4222.5 2684 L 4215.5 2684 L 4214.5 2685 L 4190.5 2686 L 4189.5 2687 L 3725 2687 L 3725 2171 Z " /><path fill="rgb(0,0,0)" stroke="rgb(0,0,0)" stroke-width="1" opacity="0" d="M 6715 2171 L 7173.5 2171 L 7174.5 2172 L 7190.5 2172 L 7191.5 2173 L 7210.5 2174 L 7239.5 2179 L 7259.5 2184 L 7302.5 2200 Q 7348 2221.5 7379 2257.5 Q 7409.6 2292.4 7425 2342.5 L 7434 2384.5 L 7435 2402.5 L 7436 2403.5 L 7437 2432.5 L 7436 2433.5 L 7435 2465.5 L 7434 2466.5 L 7434 2473.5 L 7429 2501.5 Q 7423.2 2525.7 7414 2546.5 Q 7393 2593 7356.5 2624 Q 7325.1 2651.1 7282.5 2667 L 7257.5 2675 L 7236.5 2680 L 7213.5 2683 L 7212.5 2684 L 7205.5 2684 L 7204.5 2685 L 7195.5 2685 L 7194.5 2686 L 7180.5 2686 L 7179.5 2687 L 6715 2687 L 6715 2171 Z " /><path fill="rgb(0,0,0)" stroke="rgb(0,0,0)" stroke-width="1" opacity="0" d="M 977 2939 Q 1013.5 2954.4 1046.5 2974 Q 1087.1 2997.9 1124.5 3025 Q 1198.2 3077.3 1260 3141.5 Q 1337.9 3222.6 1389 3330.5 L 1407 3374.5 L 1422 3423.5 L 1431 3470.5 L 1432 3487.5 L 1433 3488.5 L 1434 3518.5 L 1433 3519.5 L 1432 3544.5 L 1427 3569.5 Q 1423 3584 1416 3595.5 L 1404.5 3608 Q 1394.9 3615.4 1381.5 3619 L 1371.5 3621 L 1352.5 3621 L 1331.5 3617 L 1313.5 3611 Q 1291.3 3602.2 1272.5 3590 Q 1223.7 3558.3 1185 3516.5 Q 1079.6 3403.4 1022 3242.5 L 1011 3208.5 L 999 3163.5 L 987 3100.5 L 984 3071.5 L 983 3070.5 L 983 3062.5 L 982 3061.5 L 982 3053.5 L 981 3052.5 L 981 3043.5 L 980 3042.5 L 979 3017.5 L 978 3016.5 L 977 2939 Z " /><path fill="rgb(0,0,0)" stroke="rgb(0,0,0)" stroke-width="1" opacity="0" d="M 2536.5 2939 L 2538 2939.5 L 2538 2998.5 L 2537 2999.5 L 2537 3016.5 L 2536 3017.5 L 2536 3030.5 L 2535 3031.5 L 2533 3062.5 L 2532 3063.5 L 2532 3070.5 L 2531 3071.5 L 2527 3107.5 L 2519 3150.5 L 2510 3187.5 L 2500 3221.5 L 2477 3284.5 Q 2414.7 3435.2 2306.5 3540 Q 2269.3 3576.3 2221.5 3602 Q 2200.9 3612.9 2175.5 3619 L 2163.5 3620 L 2162.5 3621 L 2144.5 3621 L 2133.5 3619 L 2116.5 3612 L 2101 3598.5 Q 2090.5 3583 2086 3561.5 L 2083 3544.5 L 2083 3536.5 L 2082 3535.5 L 2081 3509.5 L 2082 3508.5 L 2083 3478.5 L 2084 3477.5 L 2084 3470.5 L 2085 3469.5 L 2087 3451.5 L 2100 3398.5 Q 2118.6 3340.1 2146 3290.5 Q 2202.7 3188.7 2284.5 3112 Q 2341.9 3058.4 2407.5 3013 Q 2466.9 2970.9 2536.5 2939 Z " /><path fill="rgb(0,0,0)" stroke="rgb(0,0,0)" stroke-width="1" opacity="0" d="M 4029.5 3661 L 4046.5 3663 Q 4056.8 3666.7 4063 3674.5 Q 4068 3680.8 4069 3690 L 3996.5 3690 L 3996 3688.5 Q 3999.9 3674.4 4010.5 3667 L 4018.5 3663 L 4029.5 3661 Z " /><path fill="rgb(0,0,0)" stroke="rgb(0,0,0)" stroke-width="1" opacity="0" d="M 4649.5 3661 Q 4673.3 3660.7 4683 3674.5 Q 4688 3680.8 4689 3690 L 4616 3689.5 Q 4619.4 3674.4 4630.5 3667 L 4642.5 3662 Q 4648 3663.5 4649.5 3661 Z " /><path fill="rgb(0,0,0)" stroke="rgb(0,0,0)" stroke-width="1" opacity="0" d="M 5728.5 3661 L 5741.5 3662 L 5748.5 3664 Q 5757.5 3668 5763 3675.5 Q 5767.6 3681.3 5768 3690 L 5696.5 3690 L 5696 3686.5 Q 5699.7 3674.7 5708.5 3668 L 5715.5 3664 L 5728.5 3661 Z " /><path fill="rgb(0,0,0)" stroke="rgb(0,0,0)" stroke-width="1" opacity="0" d="M 6253.5 3661 Q 6276.8 3660.8 6287 3673.5 Q 6292.4 3679.6 6294 3689.5 L 6221 3690 Q 6223.2 3677.4 6231.5 3670 L 6243.5 3663 L 6253.5 3661 Z " /><path fill="rgb(0,0,0)" stroke="rgb(0,0,0)" stroke-width="1" opacity="0" d="M 3875.5 3662 Q 3899.4 3662.6 3909 3677.5 Q 3914.1 3684.4 3916 3694.5 L 3916 3709.5 Q 3912.4 3727.4 3899.5 3736 Q 3889.8 3742.8 3872.5 3742 Q 3855.3 3739.2 3847 3727.5 L 3840 3712.5 L 3839 3697.5 L 3844 3681.5 L 3852.5 3671 L 3862.5 3665 L 3875.5 3662 Z " /><path fill="rgb(0,0,0)" stroke="rgb(0,0,0)" stroke-width="1" opacity="0" d="M 4495.5 3662 Q 4519.7 3662.3 4529 3677.5 Q 4538.3 3688.2 4536 3710.5 Q 4532.9 3724.9 4523.5 3733 Q 4513.5 3743 4492.5 3742 Q 4476.5 3739 4468 3728.5 Q 4459 3718.5 4459 3699.5 L 4463 3683.5 L 4471.5 3672 L 4482.5 3665 L 4495.5 3662 Z " /><path fill="rgb(0,0,0)" stroke="rgb(0,0,0)" stroke-width="1" opacity="0" d="M 4994.5 3662 Q 5017.1 3662.4 5027 3675.5 L 5035 3691.5 L 5036 3706.5 Q 5033.8 3707.7 5035 3712.5 L 5030 3724.5 L 5020.5 3735 Q 5010.9 3742.9 4992.5 3742 Q 4974.5 3739 4966 3726.5 Q 4960.9 3719.6 4959 3709.5 L 4959 3695.5 Q 4962 3677.5 4974.5 3669 L 4984.5 3664 L 4994.5 3662 Z " /><path fill="rgb(255,255,255)" stroke="rgb(255,255,255)" stroke-width="1" opacity="0.996078431372549" d="M 1746.5 1943 L 1768.5 1943 L 1769.5 1944 L 1787.5 1945 L 1822.5 1954 Q 1864.6 1969.9 1893 1999.5 Q 1919.9 2026.6 1935 2065.5 L 1939 2077.5 L 1945 2105.5 Q 1943.2 2111.7 1946 2113.5 L 1946 2149.5 L 1940 2182.5 Q 1933.3 2206.3 1922 2225.5 Q 1906.5 2252 1884.5 2272 Q 1859 2295.5 1823.5 2309 L 1799.5 2316 L 1782.5 2319 L 1774.5 2319 L 1773.5 2320 L 1742.5 2320 L 1741.5 2319 L 1732.5 2319 L 1731.5 2318 L 1720.5 2317 L 1704.5 2313 L 1689.5 2308 L 1664.5 2296 Q 1635.9 2279.6 1615 2255.5 Q 1593.6 2231.4 1581 2198.5 L 1576 2183.5 L 1571 2160.5 L 1570 2139.5 L 1569 2138.5 L 1569 2124.5 L 1570 2123.5 L 1570 2110.5 L 1574 2087.5 Q 1579 2067.5 1587 2050.5 Q 1603.8 2016.3 1630.5 1992 Q 1653.8 1970.3 1685.5 1957 L 1717.5 1947 L 1734.5 1945 L 1735.5 1944 L 1745.5 1944 L 1746.5 1943 Z " /><path fill="rgb(255,255,255)" stroke="rgb(255,255,255)" stroke-width="1" opacity="0.996078431372549" d="M 3480 1943 L 4190.5 1943 L 4191.5 1944 L 4213.5 1944 L 4214.5 1945 L 4239.5 1946 L 4240.5 1947 L 4272.5 1950 L 4311.5 1957 L 4358.5 1969 Q 4411.1 1984.9 4455.5 2009 Q 4525.2 2046.8 4576 2103.5 Q 4636.8 2170.2 4668 2266.5 L 4679 2307.5 L 4685 2339.5 L 4687 2360.5 L 4688 2361.5 L 4689 2381.5 L 4690 2382.5 L 4690 2396.5 L 4691 2397.5 L 4691 2460.5 L 4690 2461.5 L 4690 2475.5 L 4689 2476.5 L 4689 2487.5 L 4688 2488.5 L 4687 2504.5 L 4677 2558.5 L 4662 2608.5 L 4649 2640.5 Q 4610.1 2725.6 4544.5 2784 Q 4494.9 2828.9 4430.5 2859 L 4381.5 2879 L 4342.5 2891 L 4314.5 2897 L 4312 2898.5 L 4759 3414.5 L 4450.5 3415 L 4024.5 2913 L 3727 2913 L 3727 3415 L 3480 3415 L 3480 1943 Z M 3725 2171 L 3725 2687 L 4190 2687 L 4191 2686 L 4215 2685 L 4216 2684 L 4223 2684 L 4224 2683 L 4242 2681 L 4268 2675 L 4310 2660 Q 4348 2643 4377 2615 Q 4410 2582 4429 2535 L 4437 2510 L 4442 2488 L 4444 2468 L 4445 2467 L 4445 2458 L 4446 2457 L 4446 2438 L 4447 2437 L 4446 2403 L 4445 2402 L 4444 2385 L 4440 2362 L 4435 2343 Q 4420 2293 4390 2259 Q 4359 2222 4313 2200 L 4270 2184 L 4250 2179 L 4221 2174 L 4202 2173 L 4201 2172 L 4185 2172 L 4184 2171 L 3725 2171 Z " /><path fill="rgb(255,255,255)" stroke="rgb(255,255,255)" stroke-width="1" opacity="0.996078431372549" d="M 4793 1943 L 5058.5 1943 L 5059 1944.5 L 5298 2531.5 L 5533.5 3127 L 6002 1961.5 L 6010.5 1943 L 6276 1943.5 L 5671 3407.5 L 5669 3415 L 5402.5 3415 L 5402 3413.5 L 4793 1943 Z " /><path fill="rgb(255,255,255)" stroke="rgb(255,255,255)" stroke-width="1" opacity="0.996078431372549" d="M 6470 1943 L 7180.5 1943 L 7181.5 1944 L 7203.5 1944 L 7204.5 1945 L 7229.5 1946 L 7230.5 1947 L 7262.5 1950 L 7301.5 1957 L 7348.5 1969 Q 7399.9 1984.6 7443.5 2008 Q 7513.8 2045.7 7565 2102.5 Q 7625.6 2168.4 7657 2263.5 L 7668 2303.5 L 7677 2353.5 L 7679 2381.5 L 7680 2382.5 L 7680 2397.5 L 7681 2398.5 L 7681 2459.5 L 7680 2460.5 L 7680 2475.5 L 7679 2476.5 L 7679 2486.5 L 7678 2487.5 L 7676 2511.5 L 7669 2549.5 L 7659 2587.5 L 7639 2640.5 Q 7600.4 2724.9 7535.5 2783 Q 7485.4 2828.4 7420.5 2859 L 7368.5 2880 L 7332.5 2891 L 7304.5 2897 L 7302 2898.5 L 7749 3414.5 L 7440.5 3415 L 7014.5 2913 L 6717 2913 L 6717 3415 L 6470 3415 L 6470 1943 Z M 6715 2171 L 6715 2687 L 7180 2687 L 7181 2686 L 7195 2686 L 7196 2685 L 7205 2685 L 7206 2684 L 7213 2684 L 7214 2683 L 7237 2680 L 7258 2675 L 7283 2667 Q 7325 2651 7357 2624 Q 7393 2593 7414 2547 Q 7423 2526 7429 2502 L 7434 2474 L 7434 2467 L 7435 2466 L 7436 2434 L 7437 2433 L 7436 2404 L 7435 2403 L 7434 2385 L 7425 2343 Q 7410 2292 7379 2258 Q 7348 2222 7303 2200 L 7260 2184 L 7240 2179 L 7211 2174 L 7192 2173 L 7191 2172 L 7175 2172 L 7174 2171 L 6715 2171 Z " /><path fill="rgb(255,255,255)" stroke="rgb(255,255,255)" stroke-width="1" opacity="0.996078431372549" d="M 2442 1971 L 2550.5 1971 L 2551 1971.5 L 2551 1998 L 2511 1998 L 2511 2097.5 L 2510.5 2098 L 2481 2098 L 2481 1998.5 L 2480.5 1998 L 2442 1998 L 2442 1971 Z " /><path fill="rgb(255,255,255)" stroke="rgb(255,255,255)" stroke-width="1" opacity="0.996078431372549" d="M 2572 1971 L 2603.5 1971 L 2605 1972.5 L 2637.5 2023 Q 2639.8 2023.8 2639 2021.5 L 2672.5 1971 L 2703.5 1971 L 2704 1971.5 L 2704 2098 L 2674 2098 L 2674 2019.5 L 2672 2020.5 L 2639 2070 Q 2635.2 2071.5 2636 2068.5 L 2601.5 2019 L 2601 2098 L 2572.5 2098 L 2572 2097.5 L 2572 1971 Z " /><path fill="rgb(255,255,255)" stroke="rgb(255,255,255)" stroke-width="1" opacity="0.996078431372549" d="M 1286.5 2131 Q 1347.5 2168 1401.5 2212 Q 1459.5 2260 1511 2314.5 Q 1579.3 2386.7 1640 2466.5 Q 1701.5 2547 1757.5 2633 Q 1828.2 2524.2 1908 2424.5 Q 1975.3 2340.3 2052.5 2266 Q 2131.7 2189.7 2228.5 2131 L 2292.5 2163 Q 2328.6 2183.4 2361.5 2207 Q 2434.2 2259.3 2495 2323.5 Q 2567.4 2399.6 2622 2493.5 Q 2649.7 2541.3 2672 2594.5 L 2688 2635.5 L 2702 2677.5 L 2705 2691 L 2762.5 2692 L 2763.5 2693 L 2783.5 2694 L 2784.5 2695 L 2799.5 2696 L 2800.5 2697 L 2823.5 2700 L 2862.5 2709 L 2886.5 2716 L 2939.5 2736 Q 2998.1 2761.9 3047.5 2797 Q 3104.2 2837.3 3152 2886.5 Q 3218 2954.5 3271 3035.5 Q 3279.7 3048.8 3284 3066.5 L 3285 3077.5 L 3286 3078.5 L 3286 3101.5 L 3282 3120.5 L 3274 3139.5 Q 3264.3 3156.8 3249.5 3169 Q 3235 3181.5 3214.5 3188 L 3195.5 3192 L 3173.5 3192 L 3153.5 3188 L 3134.5 3180 Q 3117.3 3170.3 3105 3155.5 Q 3051.9 3072.1 2981.5 3006 Q 2930.6 2957.9 2863.5 2926 Q 2832.4 2911.6 2795.5 2903 L 2774.5 2899 L 2761.5 2898 L 2760.5 2897 L 2741 2896 L 2741 2914.5 L 2742 2915.5 L 2742 3006.5 L 2741 3007.5 L 2741 3026.5 L 2740 3027.5 L 2739 3054.5 L 2738 3055.5 L 2738 3065.5 L 2737 3066.5 L 2734 3102.5 L 2733 3103.5 L 2728 3144.5 L 2719 3192.5 L 2711 3226.5 L 2695 3282.5 Q 2679.4 3331.4 2660 3376.5 Q 2579.6 3564.1 2441.5 3694 Q 2402.3 3730.3 2356.5 3760 Q 2323.2 3781.7 2284.5 3798 L 2248.5 3811 L 2212.5 3820 L 2194.5 3822 L 2193.5 3823 L 2186.5 3823 L 2185.5 3824 L 2174.5 3824 L 2173.5 3825 L 2132.5 3825 L 2131.5 3824 L 2121.5 3824 L 2120.5 3823 L 2113.5 3823 L 2112.5 3822 L 2095.5 3820 L 2065.5 3812 L 2039.5 3802 Q 1988.4 3779.1 1953 3740.5 Q 1912.6 3696.4 1893 3631.5 L 1884 3594.5 L 1884 3589.5 L 1881 3576.5 L 1881 3569.5 L 1880 3568.5 L 1880 3561.5 L 1879 3560.5 L 1878 3532.5 L 1877 3531.5 L 1877 3493.5 L 1878 3492.5 L 1878 3475.5 L 1879 3474.5 L 1879 3463.5 L 1880 3462.5 L 1880 3453.5 L 1881 3452.5 L 1883 3430.5 L 1889 3397.5 L 1900 3352.5 L 1914 3308.5 L 1927 3274.5 L 1959 3205.5 Q 2035.9 3062.4 2150.5 2957 Q 2229.2 2884.7 2320.5 2825 L 2394.5 2781 L 2444.5 2756 L 2481.5 2740 L 2504 2732 L 2496 2705.5 L 2481 2667.5 Q 2462.7 2625.3 2440 2587.5 Q 2392.8 2509.2 2329.5 2447 Q 2288.8 2406.2 2240.5 2373 Q 2192.8 2411.8 2151 2456.5 Q 2048.6 2566.6 1963 2693.5 Q 1852.2 2856.2 1757.5 3035 Q 1701.3 2929.7 1640 2829.5 Q 1590.1 2747.9 1536 2670.5 Q 1482 2593 1422 2521.5 Q 1375.5 2466 1323.5 2416 L 1290.5 2386 L 1273.5 2373 Q 1220.5 2410.5 1176 2456.5 Q 1116.6 2517.1 1072 2592.5 Q 1052.9 2624.9 1037 2660.5 L 1020 2702.5 L 1011 2732 Q 1067.9 2752.3 1118.5 2780 Q 1169.2 2807.3 1215.5 2839 Q 1275.1 2879.9 1329.5 2926 Q 1373.6 2963.4 1413 3005.5 Q 1461.8 3057.7 1503 3117.5 Q 1546.3 3180.2 1579 3253.5 L 1603 3314.5 L 1616 3356.5 L 1624 3388.5 L 1632 3431.5 L 1634 3453.5 L 1635 3454.5 L 1635 3463.5 L 1636 3464.5 L 1637 3495.5 L 1638 3496.5 L 1638 3529.5 L 1637 3530.5 L 1637 3547.5 L 1636 3548.5 L 1635 3568.5 L 1634 3569.5 L 1630 3599.5 L 1621 3634.5 L 1610 3664.5 Q 1586.9 3718.9 1546.5 3756 Q 1507.4 3791.4 1452.5 3811 L 1423.5 3819 L 1401.5 3823 L 1383.5 3824 L 1382.5 3825 L 1341.5 3825 L 1340.5 3824 L 1329.5 3824 L 1328.5 3823 L 1321.5 3823 L 1320.5 3822 L 1302.5 3820 L 1266.5 3811 Q 1226.4 3798.6 1192.5 3780 Q 1110.5 3734.5 1048 3669.5 Q 913.4 3531.6 838 3334.5 L 819 3279.5 L 809 3245.5 L 800 3210.5 L 790 3162.5 L 786 3132.5 L 784 3125.5 L 783 3111.5 L 782 3110.5 L 779 3077.5 L 778 3076.5 L 778 3067.5 L 777 3066.5 L 777 3056.5 L 776 3055.5 L 775 3028.5 L 774 3027.5 L 774 3009.5 L 773 3008.5 L 772 2951.5 L 773 2950.5 L 773 2913.5 L 774 2912.5 L 774 2896 L 754.5 2897 L 753.5 2898 L 734.5 2900 L 696.5 2909 Q 657.9 2920.9 625.5 2939 Q 550.5 2982 495 3044.5 Q 449.8 3093.8 413 3151.5 L 396.5 3169 Q 381.9 3181.4 361.5 3188 L 341.5 3192 L 319.5 3192 L 303.5 3189 L 281.5 3180 Q 263.4 3170 251 3154.5 Q 238.3 3139.2 232 3117.5 L 229 3102.5 L 229 3077.5 L 232 3062.5 L 242 3038.5 L 273 2993.5 Q 319.7 2929.2 375.5 2874 Q 418 2832 467.5 2797 Q 519.8 2759.8 582.5 2733 L 613.5 2721 L 641.5 2712 L 691.5 2700 L 696.5 2700 L 715.5 2696 L 730.5 2695 L 731.5 2694 L 751.5 2693 L 752.5 2692 L 810 2691 L 813 2677.5 L 827 2635.5 L 849 2580.5 Q 871.9 2528.4 900 2481.5 Q 965.7 2372.7 1055.5 2288 Q 1105.7 2240.2 1163.5 2200 L 1222.5 2163 L 1286.5 2131 Z M 977 2939 L 978 3017 L 979 3018 L 980 3043 L 981 3044 L 981 3053 L 982 3054 L 982 3062 L 983 3063 L 983 3071 L 984 3072 L 987 3101 L 999 3164 L 1011 3209 L 1022 3243 Q 1080 3403 1185 3517 Q 1224 3558 1273 3590 Q 1291 3602 1314 3611 L 1332 3617 L 1353 3621 L 1372 3621 L 1382 3619 Q 1395 3615 1405 3608 L 1416 3596 Q 1423 3584 1427 3570 L 1432 3545 L 1433 3520 L 1434 3519 L 1433 3489 L 1432 3488 L 1431 3471 L 1422 3424 L 1407 3375 L 1389 3331 Q 1338 3223 1260 3142 Q 1198 3077 1125 3025 Q 1087 2998 1047 2974 Q 1013 2954 977 2939 Z M 2537 2939 Q 2467 2971 2408 3013 Q 2342 3058 2285 3112 Q 2203 3189 2146 3291 Q 2119 3340 2100 3399 L 2087 3452 L 2085 3470 L 2084 3471 L 2084 3478 L 2083 3479 L 2082 3509 L 2081 3510 L 2082 3536 L 2083 3537 L 2083 3545 L 2086 3562 Q 2091 3583 2101 3599 L 2117 3612 L 2134 3619 L 2145 3621 L 2163 3621 L 2164 3620 L 2176 3619 Q 2201 3613 2222 3602 Q 2269 3576 2307 3540 Q 2415 3435 2477 3285 L 2500 3222 L 2510 3188 L 2519 3151 L 2527 3108 L 2531 3072 L 2532 3071 L 2532 3064 L 2533 3063 L 2535 3032 L 2536 3031 L 2536 3018 L 2537 3017 L 2537 3000 L 2538 2999 L 2538 2940 L 2537 2939 Z " /><path fill="rgb(255,255,255)" stroke="rgb(255,255,255)" stroke-width="1" opacity="0.996078431372549" d="M 3540.5 3581 L 3560.5 3581 L 3581.5 3585 Q 3602.8 3591.3 3618 3603 L 3602.5 3626 Q 3589.5 3616 3571.5 3611 L 3561.5 3609 L 3540.5 3609 L 3531.5 3611 L 3522.5 3615 L 3514 3622.5 Q 3509.3 3627.3 3511 3638.5 Q 3513.3 3645.3 3518.5 3649 L 3536.5 3657 L 3572.5 3663 L 3595.5 3670 Q 3610.7 3676.3 3620 3688.5 L 3625 3699.5 L 3627 3715.5 L 3626 3716.5 L 3625 3728.5 L 3620 3740.5 L 3606.5 3755 Q 3583.6 3772.6 3540.5 3770 L 3539.5 3769 L 3532.5 3769 L 3522.5 3767 L 3508.5 3763 Q 3489.5 3756.5 3476 3744.5 L 3476 3742.5 L 3491.5 3721 Q 3505.5 3732.5 3525.5 3738 L 3539.5 3741 L 3563.5 3741 L 3578.5 3737 Q 3586.3 3733.8 3591 3727.5 Q 3595.9 3722.4 3595 3711.5 Q 3592.9 3703.2 3586.5 3699 L 3570.5 3692 L 3538.5 3687 L 3515.5 3681 Q 3499.1 3675.4 3489 3663.5 Q 3477.7 3651.3 3480 3625.5 Q 3484.5 3605 3499.5 3595 L 3519.5 3585 L 3540.5 3581 Z " /><path fill="rgb(255,255,255)" stroke="rgb(255,255,255)" stroke-width="1" opacity="0.996078431372549" d="M 4885.5 3583 Q 4900.7 3581.8 4906 3590.5 Q 4910.2 3595.3 4909 3605.5 Q 4907.4 3612.4 4902.5 3616 Q 4896.9 3620.4 4886.5 3620 Q 4877.3 3618.3 4873 3611.5 Q 4869.2 3606.8 4871 3596.5 Q 4873.1 3588.6 4879.5 3585 L 4885.5 3583 Z " /><path fill="rgb(255,255,255)" stroke="rgb(255,255,255)" stroke-width="1" opacity="0.996078431372549" d="M 5176.5 3583 Q 5191.7 3581.8 5197 3590.5 Q 5201.7 3595.3 5200 3606.5 Q 5198.2 3613.7 5192.5 3617 L 5184.5 3620 L 5177.5 3620 Q 5168.3 3618.3 5164 3611.5 Q 5160.6 3606.4 5162 3596.5 Q 5164.3 3589.8 5169.5 3586 L 5176.5 3583 Z " /><path fill="rgb(255,255,255)" stroke="rgb(255,255,255)" stroke-width="1" opacity="0.996078431372549" d="M 5101 3585 L 5130.5 3585 L 5131 3585.5 L 5131 3766 L 5101.5 3766 L 5101 3765.5 L 5101 3585 Z " /><path fill="rgb(255,255,255)" stroke="rgb(255,255,255)" stroke-width="1" opacity="0.996078431372549" d="M 5271.5 3601 L 5272 3638 L 5309 3638 L 5309 3663 L 5272 3663 L 5272 3726.5 L 5274 3733.5 L 5280.5 3740 L 5291.5 3742 L 5306 3738 L 5314 3761.5 L 5307.5 3765 L 5295.5 3768 L 5275.5 3768 Q 5259.1 3765.4 5251 3754.5 L 5246 3745.5 L 5242 3727.5 L 5242 3663 L 5218 3663 L 5218 3638 L 5242 3638 L 5242 3605.5 L 5243.5 3604 L 5270.5 3602 L 5271.5 3601 Z " /><path fill="rgb(255,255,255)" stroke="rgb(255,255,255)" stroke-width="1" opacity="0.996078431372549" d="M 6022.5 3601 L 6023 3638 L 6060 3638 L 6060 3663 L 6023 3663 L 6023 3724.5 L 6026 3734.5 L 6030.5 3739 Q 6034.8 3742.2 6042.5 3742 L 6056.5 3738 Q 6062.3 3748.2 6065 3761.5 L 6061.5 3764 L 6046.5 3768 L 6026.5 3768 Q 6012.1 3765.4 6004 3756.5 L 5998 3747.5 L 5994 3733.5 L 5994 3663 L 5970 3663 L 5970 3638 L 5994 3638 L 5994 3604.5 L 5994.5 3604 L 6002.5 3604 L 6003.5 3603 L 6012.5 3603 L 6022.5 3601 Z " /><path fill="rgb(255,255,255)" stroke="rgb(255,255,255)" stroke-width="1" opacity="0.996078431372549" d="M 3873.5 3635 L 3890.5 3635 L 3907.5 3639 Q 3923.3 3645.7 3933 3658.5 Q 3941.5 3669.5 3945 3685.5 Q 3943.8 3690.3 3946 3691.5 L 3946 3712.5 L 3942 3729.5 L 3936 3741.5 L 3924.5 3755 Q 3914.2 3764.2 3898.5 3768 Q 3893.7 3766.7 3892.5 3769 L 3871.5 3769 L 3856.5 3765 Q 3846.5 3761 3839.5 3754 L 3839 3825 L 3809.5 3825 L 3809 3824.5 L 3809 3638 L 3836 3638 L 3836 3653.5 L 3837 3653.5 L 3840.5 3649 L 3854.5 3640 L 3873.5 3635 Z M 3876 3662 L 3863 3665 L 3853 3671 L 3844 3682 L 3839 3698 L 3840 3713 L 3847 3728 Q 3855 3739 3873 3742 Q 3890 3743 3900 3736 Q 3912 3727 3916 3710 L 3916 3695 Q 3914 3684 3909 3678 Q 3899 3663 3876 3662 Z " /><path fill="rgb(255,255,255)" stroke="rgb(255,255,255)" stroke-width="1" opacity="0.996078431372549" d="M 4025.5 3635 Q 4066.8 3633.7 4084 3656.5 Q 4100.5 3675.7 4098 3713 L 3996.5 3713 L 3996 3716.5 Q 3999.7 3729.3 4009.5 3736 L 4023.5 3742 L 4041.5 3743 L 4057.5 3739 L 4072.5 3730 L 4090 3746.5 L 4089 3750 L 4073.5 3761 L 4055.5 3768 L 4044.5 3769 L 4043.5 3770 L 4024.5 3770 L 4009.5 3767 L 3997.5 3762 Q 3985.7 3755.8 3978 3745.5 Q 3969.5 3734.5 3966 3718.5 L 3965 3692.5 L 3967 3681.5 L 3971 3670.5 Q 3976.6 3659.1 3985.5 3651 L 4003.5 3640 L 4012.5 3637 L 4024.5 3636 L 4025.5 3635 Z M 4030 3661 L 4019 3663 L 4011 3667 Q 4000 3674 3996 3689 L 3997 3690 L 4069 3690 Q 4068 3681 4063 3675 Q 4057 3667 4047 3663 L 4030 3661 Z " /><path fill="rgb(255,255,255)" stroke="rgb(255,255,255)" stroke-width="1" opacity="0.996078431372549" d="M 4183.5 3635 Q 4209.1 3633.9 4221 3646.5 L 4209 3671 L 4196.5 3665 L 4180.5 3664 Q 4168.4 3666.4 4162 3674.5 L 4155 3687.5 L 4153 3697.5 L 4153 3766 L 4123.5 3766 L 4123 3765.5 L 4123 3638 L 4150 3638 L 4150 3655.5 L 4151 3655.5 L 4159.5 3645 L 4168.5 3639 L 4183.5 3635 Z " /><path fill="rgb(255,255,255)" stroke="rgb(255,255,255)" stroke-width="1" opacity="0.996078431372549" d="M 4339.5 3635 L 4363.5 3635 Q 4365 3637.5 4370.5 3636 L 4387.5 3641 L 4402 3649.5 L 4402 3651.5 L 4389.5 3671 L 4372.5 3663 L 4356.5 3660 L 4347.5 3660 L 4333.5 3663 L 4327 3667.5 Q 4324 3670.5 4325 3677.5 L 4329.5 3683 L 4339.5 3687 L 4364.5 3690 L 4381.5 3695 Q 4392.5 3699 4399 3707.5 L 4405 3721.5 L 4405 3735.5 Q 4402 3749.5 4392.5 3757 Q 4382.8 3764.8 4368.5 3768 L 4363.5 3769 L 4335.5 3769 L 4312.5 3763 Q 4300.6 3758.4 4292 3750.5 L 4292 3748.5 L 4304 3729 L 4306.5 3729 Q 4314.8 3736.7 4327.5 3740 L 4342.5 3743 L 4356.5 3743 L 4365.5 3741 L 4374 3734.5 L 4375 3725.5 L 4369.5 3719 L 4357.5 3715 Q 4337.5 3714.5 4322.5 3709 Q 4310.5 3705 4303 3696.5 L 4296 3683.5 L 4295 3671.5 L 4297 3662.5 L 4301 3654.5 L 4309.5 3646 L 4322.5 3639 L 4339.5 3635 Z " /><path fill="rgb(255,255,255)" stroke="rgb(255,255,255)" stroke-width="1" opacity="0.996078431372549" d="M 4493.5 3635 L 4510.5 3635 L 4521.5 3637 Q 4538.5 3642 4549 3653.5 Q 4558.3 3663.2 4563 3677.5 L 4566 3691.5 L 4566 3713.5 L 4564 3723.5 L 4558 3738.5 L 4544.5 3755 Q 4535.5 3763 4522.5 3767 L 4512.5 3769 L 4491.5 3769 L 4476.5 3765 Q 4466.5 3761 4459.5 3754 L 4459 3825 L 4429.5 3825 L 4429 3824.5 L 4429 3638 L 4456 3638 L 4456 3653.5 L 4458 3652.5 L 4459.5 3650 L 4472.5 3641 L 4493.5 3635 Z M 4496 3662 L 4483 3665 L 4472 3672 L 4463 3684 L 4459 3700 Q 4459 3719 4468 3729 Q 4477 3739 4493 3742 Q 4513 3743 4524 3733 Q 4533 3725 4536 3711 Q 4538 3688 4529 3678 Q 4520 3662 4496 3662 Z " /><path fill="rgb(255,255,255)" stroke="rgb(255,255,255)" stroke-width="1" opacity="0.996078431372549" d="M 4645.5 3635 Q 4687.8 3633.8 4705 3657.5 Q 4713.5 3668.5 4717 3684.5 Q 4715.7 3689.2 4718 3690.5 L 4718 3713 L 4616.5 3713 L 4616 3715.5 Q 4619 3728.5 4628.5 3735 L 4643.5 3742 L 4661.5 3743 L 4675.5 3740 L 4692.5 3730 L 4710 3746.5 Q 4710.5 3751.5 4706.5 3752 Q 4694.2 3763.2 4675.5 3768 L 4664.5 3770 L 4644.5 3770 L 4633.5 3768 L 4617.5 3762 Q 4606 3755.6 4598 3745.5 Q 4590.6 3735.9 4587 3722.5 L 4586 3711.5 L 4585 3710.5 L 4585 3694.5 L 4590 3673.5 Q 4594.8 3661.3 4603.5 3653 Q 4611.7 3644.7 4623.5 3640 L 4632.5 3637 L 4644.5 3636 L 4645.5 3635 Z M 4650 3661 Q 4648 3664 4643 3662 L 4631 3667 Q 4619 3674 4616 3690 L 4689 3690 Q 4688 3681 4683 3675 Q 4673 3661 4650 3661 Z " /><path fill="rgb(255,255,255)" stroke="rgb(255,255,255)" stroke-width="1" opacity="0.996078431372549" d="M 4794.5 3635 L 4812.5 3635 L 4828.5 3639 Q 4842.6 3644.4 4852 3654.5 L 4851 3657.5 L 4835.5 3674 L 4833.5 3674 L 4819.5 3665 L 4813.5 3663 L 4801.5 3662 Q 4800 3664.5 4794.5 3663 L 4782.5 3668 L 4773 3676.5 Q 4763.7 3687.2 4765 3708.5 Q 4768 3726.5 4780.5 3735 Q 4790.4 3743.1 4809.5 3742 L 4820.5 3739 Q 4829.2 3735.7 4834.5 3729 L 4836.5 3729 L 4854 3748.5 Q 4836.3 3771.8 4792.5 3769 L 4781.5 3767 L 4766.5 3761 L 4750 3747.5 Q 4733.5 3730 4735 3694.5 L 4736 3693.5 L 4737 3682.5 L 4744 3665.5 L 4758.5 3649 L 4776.5 3639 L 4794.5 3635 Z " /><path fill="rgb(255,255,255)" stroke="rgb(255,255,255)" stroke-width="1" opacity="0.996078431372549" d="M 4984.5 3635 L 5001.5 3635 L 5015.5 3638 Q 5029.6 3642.9 5038.5 3653 L 5039 3638 L 5065.5 3638 L 5066 3638.5 L 5066 3766 L 5039 3766 L 5039 3751.5 L 5032.5 3757 Q 5022.8 3764.8 5008.5 3768 L 5003.5 3769 L 4982.5 3769 L 4962.5 3763 L 4945 3749.5 Q 4936.5 3740 4932 3726.5 L 4929 3711.5 L 4929 3692.5 L 4931 3681.5 L 4938 3664.5 L 4953.5 3647 L 4970.5 3638 L 4984.5 3635 Z M 4995 3662 L 4985 3664 L 4975 3669 Q 4962 3678 4959 3696 L 4959 3710 Q 4961 3720 4966 3727 Q 4974 3739 4993 3742 Q 5011 3743 5021 3735 L 5030 3725 L 5035 3713 Q 5034 3708 5036 3707 L 5035 3692 L 5027 3676 Q 5017 3662 4995 3662 Z " /><path fill="rgb(255,255,255)" stroke="rgb(255,255,255)" stroke-width="1" opacity="0.996078431372549" d="M 5592.5 3635 L 5610.5 3635 L 5626.5 3639 Q 5640.6 3644.4 5650 3654.5 L 5649 3657.5 L 5633.5 3674 L 5631.5 3674 L 5617.5 3665 L 5611.5 3663 L 5599.5 3662 Q 5598 3664.5 5592.5 3663 L 5580.5 3668 L 5571 3676.5 Q 5561.7 3687.2 5563 3708.5 Q 5566 3726.5 5578.5 3735 Q 5588.4 3743.1 5607.5 3742 L 5618.5 3739 Q 5627.2 3735.7 5632.5 3729 L 5634.5 3729 L 5652 3748.5 Q 5634.3 3771.8 5590.5 3769 L 5579.5 3767 L 5564.5 3761 L 5548 3747.5 Q 5531.3 3729.7 5533 3693.5 L 5535 3682.5 L 5542 3665.5 L 5556.5 3649 L 5574.5 3639 L 5592.5 3635 Z " /><path fill="rgb(255,255,255)" stroke="rgb(255,255,255)" stroke-width="1" opacity="0.996078431372549" d="M 5724.5 3635 Q 5767.7 3633.8 5785 3658.5 Q 5792.8 3668.8 5796 3683.5 Q 5794.8 3688.2 5797 3689.5 L 5797 3713 L 5695.5 3713 L 5695 3715.5 Q 5698.3 3728.2 5707.5 3735 L 5722.5 3742 L 5741.5 3743 L 5759.5 3738 L 5770.5 3730 L 5772.5 3730 L 5789 3746.5 L 5789 3748.5 Q 5778.1 3760.1 5761.5 3766 L 5743.5 3770 L 5724.5 3770 L 5723.5 3769 L 5712.5 3768 L 5693.5 3760 L 5678 3746.5 Q 5670.8 3737.7 5667 3725.5 L 5664 3708.5 L 5664 3695.5 L 5667 3679.5 L 5673 3665.5 L 5688.5 3648 L 5702.5 3640 L 5724.5 3635 Z M 5729 3661 L 5716 3664 L 5709 3668 Q 5700 3675 5696 3687 L 5697 3690 L 5768 3690 Q 5768 3681 5763 3676 Q 5758 3668 5749 3664 L 5742 3662 L 5729 3661 Z " /><path fill="rgb(255,255,255)" stroke="rgb(255,255,255)" stroke-width="1" opacity="0.996078431372549" d="M 5887.5 3635 L 5898.5 3635 L 5913.5 3638 Q 5928.3 3643.7 5937 3655.5 L 5944 3668.5 L 5948 3684.5 L 5948 3766 L 5918 3766 L 5918 3688.5 Q 5915.8 3674.8 5906.5 3668 L 5896.5 3663 L 5885.5 3662 L 5875.5 3664 L 5869.5 3667 L 5859 3676.5 L 5855 3683.5 L 5852 3697.5 L 5852 3766 L 5823.5 3766 L 5823 3765.5 L 5823 3638 L 5849 3638 L 5849 3647.5 L 5850.5 3653 L 5852.5 3650 L 5867.5 3640 L 5887.5 3635 Z " /><path fill="rgb(255,255,255)" stroke="rgb(255,255,255)" stroke-width="1" opacity="0.996078431372549" d="M 6144.5 3635 Q 6170.4 3634.1 6183 3646.5 L 6169.5 3671 Q 6160.6 3662.9 6142.5 3664 Q 6128.6 3666.6 6122 3676.5 Q 6116.9 3683.4 6115 3693.5 L 6115 3766 L 6085.5 3766 L 6085 3765.5 L 6085 3638 L 6110.5 3638 L 6111 3639.5 L 6112 3640.5 L 6112.5 3655 L 6123.5 3643 L 6132.5 3638 L 6144.5 3635 Z " /><path fill="rgb(255,255,255)" stroke="rgb(255,255,255)" stroke-width="1" opacity="0.996078431372549" d="M 6250.5 3635 L 6263.5 3635 L 6283.5 3639 Q 6299.3 3644.7 6309 3656.5 Q 6316.2 3665.3 6320 3677.5 L 6323 3693.5 L 6323 3713 L 6221.5 3713 Q 6220.5 3713 6221 3717.5 Q 6223.9 3727.1 6230.5 3733 Q 6242.1 3744.4 6266.5 3743 L 6282.5 3739 L 6297.5 3730 L 6315 3746.5 L 6307.5 3755 Q 6297.5 3763 6283.5 3767 L 6268.5 3770 L 6249.5 3770 L 6234.5 3767 L 6226.5 3764 L 6208 3752 L 6197 3736.5 L 6192 3723.5 L 6190 3713.5 L 6190 3691.5 L 6192 3681.5 L 6198 3666.5 L 6211.5 3650 L 6230.5 3639 L 6250.5 3635 Z M 6254 3661 L 6244 3663 L 6232 3670 Q 6223 3677 6221 3690 L 6294 3690 Q 6292 3680 6287 3674 Q 6277 3661 6254 3661 Z " /><path fill="rgb(255,255,255)" stroke="rgb(255,255,255)" stroke-width="1" opacity="0.996078431372549" d="M 3651 3638 L 3680 3638 L 3680 3708.5 L 3681 3709.5 L 3681 3717.5 L 3684 3726.5 L 3691.5 3736 Q 3699.2 3742.8 3714.5 3742 Q 3730.1 3739.1 3738 3728.5 L 3742 3721.5 L 3745 3709.5 L 3745 3638 L 3774.5 3638 L 3775 3638.5 L 3775 3766 L 3748 3766 L 3748 3751.5 L 3740.5 3758 Q 3725.7 3770.7 3696.5 3769 L 3677.5 3763 L 3662 3749.5 Q 3653.8 3738.2 3651 3721.5 L 3651 3638 Z " /><path fill="rgb(255,255,255)" stroke="rgb(255,255,255)" stroke-width="1" opacity="0.996078431372549" d="M 4875 3638 L 4903.5 3638 L 4904 3638.5 L 4904 3766 L 4875.5 3766 L 4875 3765.5 L 4875 3638 Z " /><path fill="rgb(255,255,255)" stroke="rgb(255,255,255)" stroke-width="1" opacity="0.996078431372549" d="M 5166 3638 L 5195.5 3638 L 5196 3638.5 L 5196 3766 L 5166.5 3766 L 5166 3765.5 L 5166 3638 Z " /><path fill="rgb(255,255,255)" stroke="rgb(255,255,255)" stroke-width="1" opacity="0.996078431372549" d="M 5320 3638 L 5351.5 3638 L 5353 3639.5 L 5386 3730 Q 5389 3731.3 5388 3727.5 L 5423 3641.5 L 5425.5 3638 L 5456.5 3638 L 5457 3639.5 L 5376.5 3825 L 5344 3824.5 L 5370 3764.5 L 5320 3638 Z " /></svg>